<?xml version="1.0" encoding="utf-8"?>
<!-- Generator: Adobe Illustrator 19.0.0, SVG Export Plug-In . SVG Version: 6.00 Build 0)  -->
<svg xmlns="http://www.w3.org/2000/svg" xmlns:xlink="http://www.w3.org/1999/xlink" version="1.1" x="0px" y="0px" viewBox="0 0 841.9 595.3" style="enable-background:new 0 0 841.9 595.3;" xml:space="preserve">
<style type="text/css">
	.st0{opacity:0.1;fill:#020303;}
	.st1{display:none;}
	.st2{display:inline;}
	.st3{fill:#010101;}
	.st4{fill:#FFFFFF;}
	.st5{fill-rule:evenodd;clip-rule:evenodd;}
	.st6{fill-rule:evenodd;clip-rule:evenodd;fill:#FFFFFF;}
	.st7{fill-rule:evenodd;clip-rule:evenodd;fill:#323490;}
	.st8{fill-rule:evenodd;clip-rule:evenodd;fill:#F2982E;}
</style>


<g id="Vector_Logo">
	<g>
		<polygon class="st5" points="140.9,110.1 700.1,110.1 700.1,476.8 140.9,476.8 140.9,110.1   "/>
		<polygon class="st6" points="157.3,460.4 683.7,460.4 683.7,126.5 157.3,126.5 157.3,460.4   "/>
		<polygon class="st7" points="179.8,224.2 659.7,224.2 659.7,154.3 179.8,154.3 179.8,224.2   "/>
		<polygon class="st8" points="179.8,435.3 659.7,435.3 659.7,365.3 179.8,365.3 179.8,435.3   "/>
		<path class="st6" d="M646.3,418.7c-0.5-0.7-1.3-0.9-2.1-0.9h-4.5v10.6h1v-4.6h2.3l3.1,4.6h1.3l-3-4.6c0.6,0.1,1.3-0.1,1.8-0.6    c0.5-0.5,0.8-1.2,0.9-2.1C647.1,420.3,646.8,419.3,646.3,418.7L646.3,418.7z M640.7,422.6V419h3.1c0.4,0,0.9,0,1.2,0.3    c0.3,0.3,0.5,0.8,0.6,1.4c0,0.6-0.1,1.2-0.5,1.5c-0.3,0.4-0.8,0.3-1.3,0.3H640.7L640.7,422.6z M647.7,415.1    c-1.3-0.8-2.9-1.2-4.4-1.2c-1.5,0-3.1,0.4-4.4,1.2c-1.3,0.8-2.5,1.9-3.2,3.2c-0.8,1.3-1.2,2.9-1.2,4.4c0,1.5,0.4,3.1,1.2,4.4    c0.8,1.3,1.9,2.5,3.2,3.2c1.3,0.8,2.9,1.2,4.4,1.2c1.5,0,3.1-0.4,4.4-1.2c1.3-0.8,2.5-1.9,3.2-3.2c0.8-1.3,1.2-2.9,1.2-4.4    c0-1.5-0.4-3.1-1.2-4.4C650.2,417,649.1,415.9,647.7,415.1L647.7,415.1z M649.7,419.1c0.6,1.1,1,2.4,1,3.7c0,1.3-0.3,2.6-1,3.7    c-0.6,1.1-1.6,2.1-2.7,2.7c-1.1,0.6-2.4,1-3.7,1c-1.3,0-2.6-0.3-3.7-1c-1.1-0.6-2.1-1.6-2.7-2.7c-0.6-1.1-1-2.4-1-3.7    c0-1.3,0.3-2.6,1-3.7c0.6-1.1,1.6-2.1,2.7-2.7c1.1-0.6,2.4-1,3.7-1c1.3,0,2.6,0.3,3.7,1C648.1,417.1,649,418,649.7,419.1    L649.7,419.1z"/>
		<path class="st7" d="M347.9,244.4h24.6l-66.8,108.5h-29.1L274,267c-0.1-3.9-0.2-7.9-1.7-11c-1.5-3.1-3.8-5.3-6.8-6.8    c-3.1-1.5-6.9-2.4-10.7-2.3v-2.5h47.9l2.3,73.9L347.9,244.4L347.9,244.4z"/>
		<polygon class="st7" points="377.2,352.9 411.5,244.4 381,244.4 346.7,352.9 377.2,352.9   "/>
		<path class="st7" d="M395,343.7c4.6,4.7,10.6,8,18.8,9.6c8.2,1.6,18.5,1.6,28.3-0.1c9.8-1.7,19.1-5,25.6-10    c6.6-5,10.4-11.7,12.2-18.9c1.9-7.2,1.8-15-2.2-21.1c-3.9-6.1-11.7-10.5-18.2-14.6c-6.5-4.1-11.6-8-13.8-12.4    c-2.1-4.4-1.3-9.2,1.2-12.3c2.5-3.1,6.7-4.5,11.7-4.8c5.1-0.3,11.1,0.4,16.2,1.8c5,1.4,9,3.5,12.4,6.3l10.2-16.2    c-4.7-3.4-10.1-5.8-17.7-7.6c-7.6-1.8-17.4-2.9-25.9-2.3c-8.5,0.6-15.7,3-22.2,7.3c-6.4,4.2-12,10.3-15.1,16.9    c-3.1,6.6-3.8,13.6-1.9,19.7c1.9,6.1,6.4,11.2,11.1,14.9c4.7,3.7,9.5,5.9,13.7,8.5c4.2,2.5,7.9,5.4,9.8,8.9    c2,3.4,2.2,7.5-0.1,10.8c-2.4,3.3-7.4,6-13.1,6.9c-5.8,0.9-12.3,0.2-18.3-1.7c-6.1-1.8-11.7-4.8-16.5-8.6L395,343.7L395,343.7z"/>
		<path class="st7" d="M509.2,327.8l-13.8,25.1h-24.6l65.5-108.5H564l9.4,108.5h-28.9l-2-25.1H509.2L509.2,327.8z M538.2,275.1    L517,313.6h24.3L538.2,275.1L538.2,275.1z"/>
		<path class="st7" d="M583.4,246.3c-0.5-0.7-1.3-0.9-2.1-0.9h-4.5V256h1v-4.6h2.3l3.1,4.6h1.3l-3-4.6c0.6,0.1,1.3-0.1,1.8-0.6    c0.5-0.5,0.9-1.2,0.9-2.1C584.2,248,583.9,247,583.4,246.3L583.4,246.3z M577.9,250.2v-3.6h3.1c0.4,0,0.9,0,1.2,0.3    c0.3,0.3,0.5,0.8,0.6,1.4c0,0.6-0.1,1.2-0.5,1.5c-0.3,0.4-0.8,0.3-1.3,0.3H577.9L577.9,250.2z M584.9,242.8    c-1.3-0.8-2.9-1.2-4.4-1.2c-1.5,0-3.1,0.4-4.4,1.2c-1.3,0.8-2.5,1.9-3.2,3.2c-0.8,1.3-1.2,2.9-1.2,4.4c0,1.5,0.4,3.1,1.2,4.4    c0.8,1.3,1.9,2.5,3.2,3.2c1.3,0.8,2.9,1.2,4.4,1.2c1.5,0,3.1-0.4,4.4-1.2c1.3-0.8,2.5-1.9,3.2-3.2c0.8-1.3,1.2-2.9,1.2-4.4    c0-1.5-0.4-3.1-1.2-4.4C587.3,244.7,586.2,243.6,584.9,242.8L584.9,242.8z M586.8,246.8c0.6,1.1,1,2.4,1,3.7c0,1.3-0.3,2.6-1,3.7    c-0.6,1.1-1.6,2.1-2.7,2.7c-1.1,0.6-2.4,1-3.7,1c-1.3,0-2.6-0.3-3.7-1c-1.1-0.6-2.1-1.6-2.7-2.7c-0.6-1.1-1-2.4-1-3.7    c0-1.3,0.3-2.6,1-3.7c0.6-1.1,1.6-2.1,2.7-2.7c1.1-0.6,2.4-1,3.7-1c1.3,0,2.6,0.3,3.7,1C585.2,244.7,586.1,245.7,586.8,246.8    L586.8,246.8z"/>
	</g>
</g>
</svg>
